<svg width="131" height="48" viewBox="0 0 131 48" fill="none" xmlns="http://www.w3.org/2000/svg">
<path d="M5.17749 48C4.43143 48 3.7393 47.8757 3.1011 47.6271C2.47189 47.3785 1.92358 47.0285 1.45617 46.5773C0.997745 46.1262 0.638198 45.5967 0.377525 44.989C0.125842 44.3812 0 43.7182 0 43C0 42.2818 0.125842 41.6188 0.377525 41.011C0.638198 40.4033 1.00224 39.8738 1.46965 39.4227C1.93706 38.9715 2.48537 38.6215 3.11458 38.3729C3.74379 38.1243 4.42693 38 5.16401 38C5.91007 38 6.59321 38.1243 7.21343 38.3729C7.84264 38.6215 8.38646 38.9715 8.84488 39.4227C9.31229 39.8738 9.67633 40.4033 9.937 41.011C10.1977 41.6096 10.328 42.2726 10.328 43C10.328 43.7182 10.1977 44.3858 9.937 45.0028C9.67633 45.6105 9.31229 46.14 8.84488 46.5912C8.38646 47.0331 7.84264 47.3785 7.21343 47.6271C6.59321 47.8757 5.91456 48 5.17749 48ZM5.16401 46.0939C5.58648 46.0939 5.97299 46.0203 6.32355 45.8729C6.6831 45.7256 6.9977 45.5138 7.26736 45.2376C7.53702 44.9613 7.74376 44.6344 7.88758 44.2569C8.04039 43.8794 8.11679 43.4604 8.11679 43C8.11679 42.5396 8.04039 42.1206 7.88758 41.7431C7.74376 41.3656 7.53702 41.0387 7.26736 40.7624C7.00669 40.4862 6.69658 40.2744 6.33703 40.1271C5.97748 39.9797 5.58648 39.9061 5.16401 39.9061C4.74154 39.9061 4.35053 39.9797 3.99098 40.1271C3.64042 40.2744 3.33031 40.4862 3.06065 40.7624C2.79099 41.0387 2.57976 41.3656 2.42695 41.7431C2.28313 42.1206 2.21122 42.5396 2.21122 43C2.21122 43.4512 2.28313 43.8702 2.42695 44.2569C2.57976 44.6344 2.7865 44.9613 3.04717 45.2376C3.31683 45.5138 3.63143 45.7256 3.99098 45.8729C4.35053 46.0203 4.74154 46.0939 5.16401 46.0939Z" fill="#FBDCC8"/>
<path d="M11.9696 47.8343V38.1657H13.7763L19.3448 45.1271H18.4684V38.1657H20.6257V47.8343H18.8324L13.2505 40.8729H14.1269V47.8343H11.9696Z" fill="#FBDCC8"/>
<path d="M22.8587 47.8343V38.1657H25.043V46.011H29.7755V47.8343H22.8587Z" fill="#FBDCC8"/>
<path d="M30.9959 47.8343V38.1657H33.1802V47.8343H30.9959Z" fill="#FBDCC8"/>
<path d="M35.4201 47.8343V38.1657H37.2268L42.7953 45.1271H41.9189V38.1657H44.0762V47.8343H42.2829L36.701 40.8729H37.5774V47.8343H35.4201Z" fill="#FBDCC8"/>
<path d="M48.3182 42.0608H52.862V43.8011H48.3182V42.0608ZM48.48 46.0387H53.617V47.8343H46.3092V38.1657H53.4417V39.9613H48.48V46.0387Z" fill="#FBDCC8"/>
<path d="M59.1734 47.8343V38.1657H61.3577V46.011H66.0902V47.8343H59.1734Z" fill="#FBDCC8"/>
<path d="M71.7369 48C70.9908 48 70.2987 47.8757 69.6605 47.6271C69.0313 47.3785 68.483 47.0285 68.0155 46.5773C67.5571 46.1262 67.1976 45.5967 66.9369 44.989C66.6852 44.3812 66.5594 43.7182 66.5594 43C66.5594 42.2818 66.6852 41.6188 66.9369 41.011C67.1976 40.4033 67.5616 39.8738 68.029 39.4227C68.4964 38.9715 69.0447 38.6215 69.674 38.3729C70.3032 38.1243 70.9863 38 71.7234 38C72.4694 38 73.1526 38.1243 73.7728 38.3729C74.402 38.6215 74.9458 38.9715 75.4043 39.4227C75.8717 39.8738 76.2357 40.4033 76.4964 41.011C76.757 41.6096 76.8874 42.2726 76.8874 43C76.8874 43.7182 76.757 44.3858 76.4964 45.0028C76.2357 45.6105 75.8717 46.14 75.4043 46.5912C74.9458 47.0331 74.402 47.3785 73.7728 47.6271C73.1526 47.8757 72.4739 48 71.7369 48ZM71.7234 46.0939C72.1458 46.0939 72.5324 46.0203 72.8829 45.8729C73.2425 45.7256 73.5571 45.5138 73.8267 45.2376C74.0964 44.9613 74.3031 44.6344 74.4469 44.2569C74.5998 43.8794 74.6762 43.4604 74.6762 43C74.6762 42.5396 74.5998 42.1206 74.4469 41.7431C74.3031 41.3656 74.0964 41.0387 73.8267 40.7624C73.5661 40.4862 73.2559 40.2744 72.8964 40.1271C72.5369 39.9797 72.1458 39.9061 71.7234 39.9061C71.3009 39.9061 70.9099 39.9797 70.5504 40.1271C70.1998 40.2744 69.8897 40.4862 69.62 40.7624C69.3504 41.0387 69.1391 41.3656 68.9863 41.7431C68.8425 42.1206 68.7706 42.5396 68.7706 43C68.7706 43.4512 68.8425 43.8702 68.9863 44.2569C69.1391 44.6344 69.3459 44.9613 69.6065 45.2376C69.8762 45.5138 70.1908 45.7256 70.5504 45.8729C70.9099 46.0203 71.3009 46.0939 71.7234 46.0939Z" fill="#FBDCC8"/>
<path d="M83.0862 48C82.3402 48 81.6525 47.8803 81.0233 47.6409C80.4031 47.3923 79.8593 47.0424 79.3919 46.5912C78.9334 46.14 78.5739 45.6105 78.3132 45.0028C78.0615 44.395 77.9357 43.7274 77.9357 43C77.9357 42.2726 78.0615 41.605 78.3132 40.9972C78.5739 40.3895 78.9379 39.86 79.4053 39.4088C79.8728 38.9576 80.4211 38.6123 81.0503 38.3729C81.6795 38.1243 82.3716 38 83.1267 38C83.9626 38 84.7132 38.1427 85.3783 38.4282C86.0525 38.7136 86.6188 39.128 87.0772 39.6713L85.675 40.9972C85.3334 40.6289 84.9604 40.3573 84.5559 40.1823C84.1514 39.9982 83.7109 39.9061 83.2345 39.9061C82.7761 39.9061 82.3581 39.9797 81.9806 40.1271C81.6031 40.2744 81.275 40.4862 80.9963 40.7624C80.7267 41.0387 80.5155 41.3656 80.3626 41.7431C80.2188 42.1206 80.1469 42.5396 80.1469 43C80.1469 43.4512 80.2188 43.8656 80.3626 44.2431C80.5155 44.6206 80.7267 44.9521 80.9963 45.2376C81.275 45.5138 81.5986 45.7256 81.9671 45.8729C82.3446 46.0203 82.7581 46.0939 83.2076 46.0939C83.639 46.0939 84.057 46.0249 84.4615 45.8867C84.875 45.7394 85.275 45.4954 85.6615 45.1547L86.9019 46.7707C86.3896 47.1667 85.7918 47.4705 85.1087 47.6823C84.4345 47.8941 83.7604 48 83.0862 48ZM84.9064 46.4807V42.8481H86.9019V46.7707L84.9064 46.4807Z" fill="#FBDCC8"/>
<path d="M88.9309 47.8343V38.1657H93.5421C94.7286 38.1657 95.6185 38.3959 96.2118 38.8564C96.814 39.3168 97.1151 39.9245 97.1151 40.6796C97.1151 41.186 96.9938 41.628 96.7511 42.0055C96.5084 42.3738 96.1758 42.6593 95.7533 42.8619C95.3309 43.0645 94.8455 43.1657 94.2972 43.1657L94.5533 42.5994C95.1466 42.5994 95.6724 42.7007 96.1308 42.9033C96.5893 43.0967 96.9443 43.3867 97.196 43.7735C97.4567 44.1602 97.587 44.6344 97.587 45.1961C97.587 46.0249 97.2679 46.674 96.6297 47.1436C95.9915 47.6041 95.0522 47.8343 93.8118 47.8343H88.9309ZM91.1017 46.1492H93.65C94.2163 46.1492 94.6432 46.0571 94.9309 45.8729C95.2275 45.6796 95.3758 45.3757 95.3758 44.9613C95.3758 44.5562 95.2275 44.2569 94.9309 44.0635C94.6432 43.861 94.2163 43.7597 93.65 43.7597H90.9399V42.1298H93.2724C93.8028 42.1298 94.2073 42.0378 94.4859 41.8536C94.7736 41.6602 94.9174 41.3702 94.9174 40.9834C94.9174 40.6059 94.7736 40.325 94.4859 40.1409C94.2073 39.9475 93.8028 39.8508 93.2724 39.8508H91.1017V46.1492Z" fill="#FBDCC8"/>
<path d="M103.825 48C103.079 48 102.387 47.8757 101.749 47.6271C101.119 47.3785 100.571 47.0285 100.104 46.5773C99.6452 46.1262 99.2856 45.5967 99.025 44.989C98.7733 44.3812 98.6474 43.7182 98.6474 43C98.6474 42.2818 98.7733 41.6188 99.025 41.011C99.2856 40.4033 99.6497 39.8738 100.117 39.4227C100.585 38.9715 101.133 38.6215 101.762 38.3729C102.391 38.1243 103.074 38 103.811 38C104.558 38 105.241 38.1243 105.861 38.3729C106.49 38.6215 107.034 38.9715 107.492 39.4227C107.96 39.8738 108.324 40.4033 108.584 41.011C108.845 41.6096 108.975 42.2726 108.975 43C108.975 43.7182 108.845 44.3858 108.584 45.0028C108.324 45.6105 107.96 46.14 107.492 46.5912C107.034 47.0331 106.49 47.3785 105.861 47.6271C105.241 47.8757 104.562 48 103.825 48ZM103.811 46.0939C104.234 46.0939 104.62 46.0203 104.971 45.8729C105.331 45.7256 105.645 45.5138 105.915 45.2376C106.184 44.9613 106.391 44.6344 106.535 44.2569C106.688 43.8794 106.764 43.4604 106.764 43C106.764 42.5396 106.688 42.1206 106.535 41.7431C106.391 41.3656 106.184 41.0387 105.915 40.7624C105.654 40.4862 105.344 40.2744 104.984 40.1271C104.625 39.9797 104.234 39.9061 103.811 39.9061C103.389 39.9061 102.998 39.9797 102.638 40.1271C102.288 40.2744 101.978 40.4862 101.708 40.7624C101.438 41.0387 101.227 41.3656 101.074 41.7431C100.931 42.1206 100.859 42.5396 100.859 43C100.859 43.4512 100.931 43.8702 101.074 44.2569C101.227 44.6344 101.434 44.9613 101.695 45.2376C101.964 45.5138 102.279 45.7256 102.638 45.8729C102.998 46.0203 103.389 46.0939 103.811 46.0939Z" fill="#FBDCC8"/>
<path d="M115.201 48C114.455 48 113.763 47.8757 113.125 47.6271C112.496 47.3785 111.947 47.0285 111.48 46.5773C111.022 46.1262 110.662 45.5967 110.401 44.989C110.15 44.3812 110.024 43.7182 110.024 43C110.024 42.2818 110.15 41.6188 110.401 41.011C110.662 40.4033 111.026 39.8738 111.493 39.4227C111.961 38.9715 112.509 38.6215 113.138 38.3729C113.768 38.1243 114.451 38 115.188 38C115.934 38 116.617 38.1243 117.237 38.3729C117.866 38.6215 118.41 38.9715 118.869 39.4227C119.336 39.8738 119.7 40.4033 119.961 41.011C120.221 41.6096 120.352 42.2726 120.352 43C120.352 43.7182 120.221 44.3858 119.961 45.0028C119.7 45.6105 119.336 46.14 118.869 46.5912C118.41 47.0331 117.866 47.3785 117.237 47.6271C116.617 47.8757 115.938 48 115.201 48ZM115.188 46.0939C115.61 46.0939 115.997 46.0203 116.347 45.8729C116.707 45.7256 117.021 45.5138 117.291 45.2376C117.561 44.9613 117.768 44.6344 117.911 44.2569C118.064 43.8794 118.141 43.4604 118.141 43C118.141 42.5396 118.064 42.1206 117.911 41.7431C117.768 41.3656 117.561 41.0387 117.291 40.7624C117.03 40.4862 116.72 40.2744 116.361 40.1271C116.001 39.9797 115.61 39.9061 115.188 39.9061C114.765 39.9061 114.374 39.9797 114.015 40.1271C113.664 40.2744 113.354 40.4862 113.084 40.7624C112.815 41.0387 112.604 41.3656 112.451 41.7431C112.307 42.1206 112.235 42.5396 112.235 43C112.235 43.4512 112.307 43.8702 112.451 44.2569C112.604 44.6344 112.81 44.9613 113.071 45.2376C113.341 45.5138 113.655 45.7256 114.015 45.8729C114.374 46.0203 114.765 46.0939 115.188 46.0939Z" fill="#FBDCC8"/>
<path d="M123.948 45.6243L123.827 43.0414L128.344 38.1657H130.771L126.699 42.6547L125.485 43.9807L123.948 45.6243ZM121.993 47.8343V38.1657H124.164V47.8343H121.993ZM128.452 47.8343L125.094 43.6215L126.524 42.0331L131 47.8343H128.452Z" fill="#FBDCC8"/>
<path d="M7.524 35V16.388H0.144V9.8H23.4V16.388H16.02V35H7.524ZM38.4671 35.576C36.4271 35.576 34.5311 35.252 32.7791 34.604C31.0511 33.956 29.5511 33.044 28.2791 31.868C27.0071 30.668 26.0111 29.264 25.2911 27.656C24.5951 26.048 24.2471 24.296 24.2471 22.4C24.2471 20.48 24.5951 18.728 25.2911 17.144C26.0111 15.536 27.0071 14.144 28.2791 12.968C29.5511 11.768 31.0511 10.844 32.7791 10.196C34.5311 9.548 36.4271 9.224 38.4671 9.224C40.5311 9.224 42.4271 9.548 44.1551 10.196C45.8831 10.844 47.3831 11.768 48.6551 12.968C49.9271 14.144 50.9111 15.536 51.6071 17.144C52.3271 18.728 52.6871 20.48 52.6871 22.4C52.6871 24.296 52.3271 26.048 51.6071 27.656C50.9111 29.264 49.9271 30.668 48.6551 31.868C47.3831 33.044 45.8831 33.956 44.1551 34.604C42.4271 35.252 40.5311 35.576 38.4671 35.576ZM38.4671 28.7C39.2591 28.7 39.9911 28.556 40.6631 28.268C41.3591 27.98 41.9591 27.572 42.4631 27.044C42.9911 26.492 43.3991 25.832 43.6871 25.064C43.9751 24.272 44.1191 23.384 44.1191 22.4C44.1191 21.416 43.9751 20.54 43.6871 19.772C43.3991 18.98 42.9911 18.32 42.4631 17.792C41.9591 17.24 41.3591 16.82 40.6631 16.532C39.9911 16.244 39.2591 16.1 38.4671 16.1C37.6751 16.1 36.9311 16.244 36.2351 16.532C35.5631 16.82 34.9631 17.24 34.4351 17.792C33.9311 18.32 33.5351 18.98 33.2471 19.772C32.9591 20.54 32.8151 21.416 32.8151 22.4C32.8151 23.384 32.9591 24.272 33.2471 25.064C33.5351 25.832 33.9311 26.492 34.4351 27.044C34.9631 27.572 35.5631 27.98 36.2351 28.268C36.9311 28.556 37.6751 28.7 38.4671 28.7ZM55.7708 35V9.8H67.9028C70.2548 9.8 72.2828 10.184 73.9868 10.952C75.7148 11.72 77.0468 12.824 77.9828 14.264C78.9188 15.68 79.3868 17.36 79.3868 19.304C79.3868 21.248 78.9188 22.928 77.9828 24.344C77.0468 25.76 75.7148 26.864 73.9868 27.656C72.2828 28.424 70.2548 28.808 67.9028 28.808H60.4868L64.2668 25.172V35H55.7708ZM64.2668 26.108L60.4868 22.256H67.3628C68.5388 22.256 69.4028 21.992 69.9548 21.464C70.5308 20.936 70.8188 20.216 70.8188 19.304C70.8188 18.392 70.5308 17.672 69.9548 17.144C69.4028 16.616 68.5388 16.352 67.3628 16.352H60.4868L64.2668 12.5V26.108ZM78.1715 35L89.1875 9.8H97.5395L108.555 35H99.7715L91.6355 13.832H94.9475L86.8115 35H78.1715ZM84.7235 30.608L86.8835 24.488H98.4755L100.635 30.608H84.7235ZM109.911 35V9.8H118.407V28.412H129.783V35H109.911Z" fill="#EF7523"/>
</svg>
